<?xml version="1.0"?>
<svg xmlns="http://www.w3.org/2000/svg" xmlns:xlink="http://www.w3.org/1999/xlink" version="1.1" id="Layer_1" x="0px" y="0px" viewBox="0 0 512 512" style="enable-background:new 0 0 512 512;" xml:space="preserve" width="512px" height="512px"><g><g>
	<path d="M510.648,496.979L332,189.307V100h120c5.523,0,10-4.477,10-10V10c0-5.523-4.477-10-10-10H322c-5.523,0-10,4.477-10,10   v88.786l-21.436,29.893c-3.219,4.488-2.189,10.736,2.299,13.954c1.765,1.266,3.801,1.875,5.819,1.875   c3.113,0,6.182-1.45,8.135-4.173l5.183-7.228v56.029l-78.993,126.527l-66.9-51.581c-2.208-1.703-5.029-2.405-7.778-1.94   c-2.75,0.467-5.18,2.061-6.704,4.397l-150,230c-2.005,3.074-2.165,6.999-0.417,10.226C2.956,509.99,6.331,512,10.001,512H502   c3.577,0,6.882-1.911,8.667-5.011S512.444,500.072,510.648,496.979z M332,20h110v60H332V20z M28.462,492l134.004-205.473   L222.61,332.9l-31.47,55.14c-1.33,2.32-1.67,5.01-0.97,7.59c0.71,2.58,2.37,4.73,4.69,6.05c1.51,0.86,3.22,1.32,4.95,1.32   c3.59,0,6.92-1.93,8.69-5.05l35.433-62.058c0.063-0.093,77.391-123.926,77.391-123.926c0.224,0.015,0.448,0.034,0.676,0.034   c0.016,0,0.032-0.002,0.048-0.002L484.63,492H28.462z" data-original="#000000" class="active-path" data-old_color="#000000" fill="#0072BE"/>
	<path d="M184.941,419.05c-1.51-0.86-3.22-1.32-4.95-1.32c-3.58,0-6.91,1.93-8.69,5.04c-2.73,4.79-1.06,10.91,3.73,13.65   c1.51,0.86,3.22,1.31,4.95,1.31c3.58,0,6.91-1.93,8.69-5.04c1.32-2.32,1.67-5.02,0.96-7.59   C188.93,422.52,187.261,420.37,184.941,419.05z" data-original="#000000" class="active-path" data-old_color="#000000" fill="#0072BE"/>
	<path d="M207.889,256.636c1.902,2.335,4.752,3.685,7.753,3.685c0.102,0,0.205-0.001,0.308-0.005   c3.113-0.095,6.004-1.636,7.819-4.168l13.119-18.296c3.218-4.488,2.189-10.735-2.299-13.954   c-4.488-3.219-10.735-2.189-13.954,2.299l-5.498,7.667l-15.413-18.925c-3.488-4.283-9.786-4.927-14.069-1.439   c-4.282,3.488-4.927,9.787-1.439,14.069L207.889,256.636z" data-original="#000000" class="active-path" data-old_color="#000000" fill="#0072BE"/>
	<path d="M246.244,207.646c1.765,1.266,3.801,1.875,5.819,1.875c3.113,0,6.182-1.45,8.135-4.173l23.31-32.507   c3.218-4.488,2.189-10.735-2.299-13.954c-4.488-3.218-10.736-2.191-13.954,2.299l-23.31,32.506   C240.727,198.18,241.757,204.427,246.244,207.646z" data-original="#000000" class="active-path" data-old_color="#000000" fill="#0072BE"/>
	<path d="M138.492,214.979c1.686,1.1,3.581,1.625,5.454,1.625c3.266,0,6.468-1.598,8.385-4.538l8.815-13.516   c3.556,2.383,8.39,2.286,11.88-0.558c4.282-3.488,4.926-9.787,1.439-14.069l-6.71-8.239c-2.016-2.476-5.089-3.84-8.282-3.671   c-3.188,0.168-6.104,1.849-7.848,4.523l-16.046,24.604C132.562,205.767,133.866,211.962,138.492,214.979z" data-original="#000000" class="active-path" data-old_color="#000000" fill="#0072BE"/>
	<path d="M94.791,281.989c1.687,1.1,3.58,1.625,5.454,1.625c3.266,0,6.468-1.599,8.385-4.538l21.851-33.504   c3.017-4.626,1.713-10.822-2.913-13.839c-4.628-3.018-10.822-1.713-13.839,2.913L91.877,268.15   C88.86,272.776,90.165,278.972,94.791,281.989z" data-original="#000000" class="active-path" data-old_color="#000000" fill="#0072BE"/>
	<path d="M4.538,420.376c1.687,1.1,3.58,1.625,5.454,1.625c3.266,0,6.468-1.599,8.385-4.538l13.775-21.122   c3.017-4.626,1.713-10.822-2.913-13.839c-4.626-3.018-10.823-1.712-13.839,2.913L1.625,406.537   C-1.392,411.163-0.088,417.359,4.538,420.376z" data-original="#000000" class="active-path" data-old_color="#000000" fill="#0072BE"/>
	<path d="M40.164,365.75c1.686,1.1,3.581,1.625,5.454,1.625c3.267,0,6.468-1.598,8.385-4.538l21.851-33.504   c3.017-4.626,1.713-10.822-2.913-13.839c-4.627-3.018-10.822-1.713-13.839,2.914l-21.851,33.504   C34.234,356.537,35.538,362.733,40.164,365.75z" data-original="#000000" class="active-path" data-old_color="#000000" fill="#0072BE"/>
</g></g> </svg>
